<svg width="221" height="46" viewBox="0 0 221 46" fill="none" xmlns="http://www.w3.org/2000/svg">
<g clip-path="url(#clip0_126_2)">
<mask id="mask0_126_2" style="mask-type:luminance" maskUnits="userSpaceOnUse" x="0" y="0" width="221" height="46">
<path d="M221 0H0V46H221V0Z" fill="white"/>
</mask>
<g mask="url(#mask0_126_2)">
<path d="M26.64 1.4H33.552L21.216 35H13.392L1.104 1.4H8.016L17.328 28.376L26.64 1.4ZM48.5126 35.336C46.1126 35.336 44.0006 34.808 42.1766 33.752C40.3526 32.696 38.9286 31.224 37.9046 29.336C36.9126 27.448 36.4166 25.272 36.4166 22.808C36.4166 20.44 36.9126 18.344 37.9046 16.52C38.8966 14.696 40.2726 13.272 42.0326 12.248C43.8246 11.192 45.8566 10.664 48.1286 10.664C50.4326 10.664 52.4646 11.16 54.2246 12.152C55.9846 13.144 57.3446 14.536 58.3046 16.328C59.2966 18.088 59.7926 20.152 59.7926 22.52C59.7926 22.872 59.7606 23.272 59.6966 23.72C59.6646 24.136 59.6166 24.584 59.5526 25.064H43.0406C43.1686 26.088 43.4886 26.968 44.0006 27.704C44.5446 28.408 45.2006 28.968 45.9686 29.384C46.7686 29.768 47.6646 29.96 48.6566 29.96C49.8406 29.96 50.8966 29.72 51.8246 29.24C52.7846 28.728 53.4726 28.072 53.8886 27.272L59.3606 28.904C58.4006 30.952 56.9606 32.536 55.0406 33.656C53.1526 34.776 50.9766 35.336 48.5126 35.336ZM53.0726 20.6C53.0406 19.704 52.8006 18.904 52.3526 18.2C51.9046 17.464 51.3126 16.904 50.5766 16.52C49.8406 16.104 49.0246 15.896 48.1286 15.896C47.3286 15.896 46.5766 16.104 45.8726 16.52C45.1686 16.936 44.5606 17.496 44.0486 18.2C43.5686 18.872 43.2486 19.672 43.0886 20.6H53.0726ZM65.292 11H71.436V35H65.292V11ZM68.412 7.928C67.26 7.928 66.316 7.576 65.58 6.872C64.844 6.136 64.476 5.24 64.476 4.184C64.476 3.128 64.844 2.248 65.58 1.544C66.316 0.808002 67.26 0.440002 68.412 0.440002C69.5 0.440002 70.412 0.808002 71.148 1.544C71.916 2.248 72.3 3.128 72.3 4.184C72.3 5.24 71.916 6.136 71.148 6.872C70.412 7.576 69.5 7.928 68.412 7.928ZM78.1635 0.440002H84.3075V35H78.1635V0.440002ZM94.5304 27.176C94.7224 27.976 95.0424 28.584 95.4904 29C95.9704 29.416 96.4984 29.72 97.0744 29.912C97.6824 30.072 98.2904 30.152 98.8984 30.152C100.018 30.152 100.898 29.944 101.538 29.528C102.178 29.08 102.498 28.52 102.498 27.848C102.498 27.272 102.274 26.824 101.826 26.504C101.378 26.152 100.802 25.896 100.098 25.736C99.3944 25.544 98.6744 25.352 97.9384 25.16C97.0744 24.936 96.1464 24.696 95.1544 24.44C94.1944 24.152 93.2824 23.752 92.4184 23.24C91.5544 22.728 90.8344 22.072 90.2584 21.272C89.6824 20.44 89.3944 19.4 89.3944 18.152C89.3944 16.68 89.7944 15.384 90.5944 14.264C91.4264 13.144 92.5624 12.264 94.0024 11.624C95.4744 10.984 97.1704 10.664 99.0904 10.664C101.362 10.664 103.282 11.144 104.85 12.104C106.418 13.064 107.554 14.44 108.258 16.232L102.834 17.768C102.674 17.32 102.402 16.952 102.018 16.664C101.634 16.376 101.17 16.168 100.626 16.04C100.114 15.912 99.5864 15.848 99.0424 15.848C98.1144 15.848 97.3464 16.04 96.7384 16.424C96.1304 16.776 95.8264 17.272 95.8264 17.912C95.8264 18.296 95.9384 18.616 96.1624 18.872C96.3864 19.096 96.6904 19.288 97.0744 19.448C97.4904 19.608 97.9544 19.752 98.4664 19.88C99.0104 20.008 99.6024 20.152 100.242 20.312C101.234 20.568 102.226 20.872 103.218 21.224C104.242 21.544 105.17 21.96 106.002 22.472C106.866 22.984 107.554 23.672 108.066 24.536C108.578 25.4 108.866 26.488 108.93 27.8C108.93 29.208 108.53 30.488 107.73 31.64C106.93 32.76 105.778 33.656 104.274 34.328C102.77 35 100.946 35.336 98.8024 35.336C96.3064 35.336 94.1784 34.808 92.4184 33.752C90.6904 32.696 89.5544 31.048 89.0104 28.808L94.5304 27.176ZM124.208 35.336C121.872 35.336 119.824 34.824 118.064 33.8C116.304 32.776 114.928 31.352 113.936 29.528C112.944 27.672 112.448 25.528 112.448 23.096C112.448 20.632 112.944 18.472 113.936 16.616C114.928 14.76 116.32 13.304 118.112 12.248C119.904 11.192 121.968 10.664 124.304 10.664C126.832 10.664 129.072 11.288 131.024 12.536C133.008 13.784 134.4 15.464 135.2 17.576L129.488 19.208C129.104 18.28 128.464 17.544 127.568 17C126.704 16.456 125.712 16.184 124.592 16.184C123.472 16.184 122.48 16.472 121.616 17.048C120.784 17.624 120.128 18.424 119.648 19.448C119.2 20.472 118.976 21.672 118.976 23.048C118.976 25.128 119.488 26.776 120.512 27.992C121.536 29.208 122.912 29.816 124.64 29.816C125.728 29.816 126.72 29.56 127.616 29.048C128.512 28.504 129.184 27.768 129.632 26.84L135.296 28.472C134.432 30.552 132.992 32.216 130.976 33.464C128.992 34.712 126.736 35.336 124.208 35.336ZM173.399 31.4L174.167 31.304V44.6H168.023V11H173.591L173.975 13.976C174.679 13.048 175.671 12.264 176.951 11.624C178.231 10.984 179.703 10.664 181.367 10.664C183.447 10.664 185.287 11.176 186.887 12.2C188.487 13.224 189.735 14.664 190.631 16.52C191.559 18.344 192.023 20.504 192.023 23C192.023 25.496 191.559 27.672 190.631 29.528C189.735 31.384 188.487 32.824 186.887 33.848C185.319 34.84 183.479 35.336 181.367 35.336C179.511 35.336 177.895 34.952 176.519 34.184C175.175 33.416 174.135 32.488 173.399 31.4ZM185.399 23C185.399 20.984 184.871 19.368 183.815 18.152C182.791 16.904 181.447 16.28 179.783 16.28C178.759 16.28 177.815 16.552 176.951 17.096C176.119 17.608 175.447 18.36 174.935 19.352C174.423 20.312 174.167 21.528 174.167 23C174.167 24.44 174.423 25.656 174.935 26.648C175.447 27.64 176.119 28.408 176.951 28.952C177.815 29.464 178.759 29.72 179.783 29.72C181.447 29.72 182.791 29.112 183.815 27.896C184.871 26.648 185.399 25.016 185.399 23ZM207.606 35.336C205.206 35.336 203.094 34.808 201.27 33.752C199.446 32.696 198.022 31.224 196.998 29.336C196.006 27.448 195.51 25.272 195.51 22.808C195.51 20.44 196.006 18.344 196.998 16.52C197.99 14.696 199.366 13.272 201.126 12.248C202.918 11.192 204.95 10.664 207.222 10.664C209.526 10.664 211.558 11.16 213.318 12.152C215.078 13.144 216.438 14.536 217.398 16.328C218.39 18.088 218.886 20.152 218.886 22.52C218.886 22.872 218.854 23.272 218.79 23.72C218.758 24.136 218.71 24.584 218.646 25.064H202.134C202.262 26.088 202.582 26.968 203.094 27.704C203.638 28.408 204.294 28.968 205.062 29.384C205.862 29.768 206.758 29.96 207.75 29.96C208.934 29.96 209.99 29.72 210.918 29.24C211.878 28.728 212.566 28.072 212.982 27.272L218.454 28.904C217.494 30.952 216.054 32.536 214.134 33.656C212.246 34.776 210.07 35.336 207.606 35.336ZM212.166 20.6C212.134 19.704 211.894 18.904 211.446 18.2C210.998 17.464 210.406 16.904 209.67 16.52C208.934 16.104 208.118 15.896 207.222 15.896C206.422 15.896 205.67 16.104 204.966 16.52C204.262 16.936 203.654 17.496 203.142 18.2C202.662 18.872 202.342 19.672 202.182 20.6H212.166Z" fill="#E5E7EB"/>
<path d="M150.888 35.336C148.552 35.336 146.472 34.84 144.648 33.848C142.824 32.824 141.384 31.4 140.328 29.576C139.304 27.72 138.792 25.544 138.792 23.048C138.792 20.52 139.32 18.328 140.376 16.472C141.464 14.616 142.936 13.192 144.792 12.2C146.648 11.176 148.728 10.664 151.032 10.664C153.336 10.664 155.416 11.176 157.272 12.2C159.128 13.192 160.6 14.616 161.688 16.472C162.776 18.296 163.32 20.456 163.32 22.952C163.32 25.48 162.76 27.672 161.64 29.528C160.552 31.384 159.064 32.824 157.176 33.848C155.32 34.84 153.224 35.336 150.888 35.336ZM150.84 29.816C151.832 29.816 152.776 29.576 153.672 29.096C154.568 28.584 155.304 27.832 155.88 26.84C156.456 25.816 156.744 24.52 156.744 22.952C156.744 21.448 156.472 20.2 155.928 19.208C155.384 18.184 154.664 17.432 153.768 16.952C152.904 16.44 151.96 16.184 150.936 16.184C149.944 16.184 149.016 16.44 148.152 16.952C147.32 17.432 146.648 18.184 146.136 19.208C145.656 20.2 145.416 21.48 145.416 23.048C145.416 24.552 145.656 25.816 146.136 26.84C146.616 27.832 147.272 28.584 148.104 29.096C148.936 29.576 149.848 29.816 150.84 29.816Z" fill="#2DD4BF"/>
<path d="M151 19V16" stroke="#2DD4BF" stroke-width="2"/>
<path d="M151 30V27" stroke="#2DD4BF" stroke-width="2"/>
<path d="M145 23H148" stroke="#2DD4BF" stroke-width="2"/>
<path d="M154 23H157" stroke="#2DD4BF" stroke-width="2"/>
</g>
</g>
<defs>
<clipPath id="clip0_126_2">
<rect width="221" height="46" fill="white"/>
</clipPath>
</defs>
</svg>
